<svg viewBox="0 0 89 16" fill="none" xmlns="http://www.w3.org/2000/svg"><path fill-rule="evenodd" clip-rule="evenodd" d="m5.66 3.88.23 2.79h4.22l.23-2.8a2.35 2.35 0 1 0-4.68 0Zm5.78 2.79.23-2.68a3.68 3.68 0 1 0-7.34 0l.23 2.68h-4.56l.19 1.33.82 5.71a2.67 2.67 0 0 0 2.64 2.29h8.7c1.33 0 2.46-.98 2.64-2.29l.82-5.71.19-1.33h-4.55Zm-.1 1.33h-.06l-.22 2.67h3.02l.38-2.67h-3.13Zm-1.4 0h-3.88l.22 2.67h3.44l.22-2.67Zm-5.22 0h-3.18l.38 2.67h3.02l-.22-2.67Zm1.9 6.67-.23-2.67h3.22l-.22 2.67h-2.78Zm4.33-2.67-.23 2.67h1.63c.67 0 1.23-.5 1.32-1.15l.22-1.52h-2.94Zm-5.9 0 .23 2.67h-1.63c-.67 0-1.23-.5-1.32-1.15l-.22-1.52h2.94Z" fill="#333"/><path d="m30.96 12-3.05-4.14.97-.6 3.45 4.74h-1.37Zm-5.65 0v-8.4h1.17v8.4h-1.17Zm.81-3.7v-1.05h2.73v1.05h-2.73Zm2.87-.37-1.1-.17 3.01-4.16h1.28l-3.19 4.33Zm8.56 4.17c-.64 0-1.23-.11-1.78-.33a4.25 4.25 0 0 1-2.69-3.97 4.26 4.26 0 0 1 1.27-3.06c.4-.4.87-.7 1.42-.91a4.8 4.8 0 0 1 1.78-.33 4.68 4.68 0 0 1 3.18 1.23c.41.38.72.83.94 1.35.22.52.34 1.1.34 1.72a4.3 4.3 0 0 1-1.28 3.08c-.4.39-.87.69-1.41.9-.54.21-1.13.32-1.77.32Zm0-1.07a3.37 3.37 0 0 0 2.32-.91 3.23 3.23 0 0 0 .94-2.32 3.23 3.23 0 0 0-1.97-2.99 3.4 3.4 0 0 0-1.29-.24c-.47 0-.9.08-1.3.24-.4.16-.74.39-1.04.69a3.12 3.12 0 0 0-.93 2.3c0 .46.08.9.24 1.28a3.2 3.2 0 0 0 3.04 1.94Zm6.64.97v-8.4h3.27c.74 0 1.37.12 1.89.35.52.23.92.57 1.2 1 .28.45.42.97.42 1.58 0 .6-.14 1.13-.42 1.57a2.7 2.7 0 0 1-1.2 1 4.6 4.6 0 0 1-1.89.36h-2.61l.54-.57v3.11h-1.2Zm1.2-2.99-.54-.6h2.58c.76 0 1.34-.16 1.74-.49.4-.33.6-.8.6-1.4 0-.6-.2-1.06-.6-1.38-.4-.33-.98-.5-1.74-.5h-2.58l.54-.6v4.97Zm6.47 2.08.42-.89c.37.29.77.5 1.21.65a3.9 3.9 0 0 0 2.54.05c.38-.12.68-.3.9-.54.23-.24.34-.54.34-.9 0-.42-.18-.75-.53-.98a2.63 2.63 0 0 0-1.44-.33h-1.87v-.97h1.79c.53 0 .95-.11 1.25-.33.3-.22.45-.53.45-.92 0-.3-.09-.55-.27-.75-.18-.2-.42-.36-.74-.46a4.15 4.15 0 0 0-2.23 0c-.4.1-.8.27-1.17.5l-.39-.98a5.45 5.45 0 0 1 3.22-.71c.52.04.99.16 1.4.36.43.19.76.45 1.01.77.26.3.38.68.38 1.12a1.88 1.88 0 0 1-1.17 1.78c-.37.16-.8.24-1.29.24l.05-.32c.56 0 1.05.09 1.45.27.42.18.74.43.96.76.24.33.35.7.35 1.14 0 .4-.1.77-.31 1.09-.2.31-.5.58-.85.8-.35.2-.76.35-1.21.45-.45.1-.92.13-1.42.1a5.9 5.9 0 0 1-1.48-.3 4.57 4.57 0 0 1-1.35-.7Zm8.86.91v-8.4h1.19v6.48l4.97-6.48h1.1v8.4h-1.17v-6.47l-4.98 6.47h-1.1Zm16.14-8.4h1.2v8.4h-1.2v-8.4Zm-4.82 8.4h-1.2v-8.4h1.2v8.4Zm4.93-3.74h-5.05v-1.05h5.05v1.05Zm2.79 3.74 3.8-8.4h1.2l3.8 8.4h-1.25l-3.4-7.73h.48l-3.4 7.73h-1.23Zm1.62-2.1.32-.96h4.73l.35.96h-5.4Z" fill="#333"/></svg>