<svg viewBox="0 0 72 16" fill="none" xmlns="http://www.w3.org/2000/svg"><path fill-rule="evenodd" clip-rule="evenodd" d="M10.67 4a2.67 2.67 0 1 1-5.34 0 2.67 2.67 0 0 1 5.34 0Zm1.33 0a4 4 0 1 1-8 0 4 4 0 0 1 8 0Zm-8.8 8.31a7.55 7.55 0 0 1 4.8-1.64c1.84 0 3.56.6 4.8 1.64a4.83 4.83 0 0 1 1.87 3.69h1.33c0-1.77-.84-3.46-2.34-4.71a8.88 8.88 0 0 0-5.66-1.96c-2.12 0-4.16.7-5.66 1.96a6.16 6.16 0 0 0-2.34 4.71h1.33c0-1.33.63-2.66 1.87-3.69Z" fill="#333"/><path d="M25.3 12v-8.4h3.62c.91 0 1.63.18 2.15.55.52.37.78.9.78 1.61 0 .69-.25 1.22-.75 1.58-.5.36-1.14.54-1.95.54l.21-.36c.94 0 1.66.2 2.15.57.5.37.76.9.76 1.62 0 .72-.27 1.28-.8 1.69-.51.4-1.29.6-2.32.6h-3.84Zm1.2-.95h2.62c.64 0 1.12-.11 1.44-.35.33-.24.5-.6.5-1.09 0-.49-.17-.84-.5-1.07-.32-.22-.8-.33-1.44-.33h-2.62v2.84Zm0-3.75h2.34a2.2 2.2 0 0 0 1.33-.35c.31-.23.47-.57.47-1.02 0-.46-.16-.8-.47-1.03-.3-.24-.75-.35-1.33-.35h-2.34v2.75Zm11.8 4.8c-.65 0-1.24-.11-1.8-.33a4.25 4.25 0 0 1-2.69-3.97 4.26 4.26 0 0 1 1.28-3.06c.4-.4.87-.7 1.41-.91a4.8 4.8 0 0 1 1.8-.33 4.68 4.68 0 0 1 3.17 1.23c.41.38.72.83.94 1.35.22.52.33 1.1.33 1.72a4.3 4.3 0 0 1-1.27 3.08c-.4.39-.87.69-1.41.9-.54.21-1.13.32-1.77.32Zm0-1.07a3.37 3.37 0 0 0 2.3-.91 3.23 3.23 0 0 0 .94-2.32 3.23 3.23 0 0 0-1.96-2.99 3.4 3.4 0 0 0-1.29-.24c-.47 0-.9.08-1.3.24-.4.16-.74.39-1.04.69a3.12 3.12 0 0 0-.93 2.3c0 .46.08.9.24 1.28a3.2 3.2 0 0 0 3.04 1.94Zm6.62.97v-8.4h1.2v6.48l4.96-6.48h1.1v8.4h-1.17v-6.47l-4.98 6.47h-1.1Zm3.62-8.99c-.66 0-1.17-.14-1.53-.43-.35-.29-.53-.7-.54-1.21h.85c.01.31.12.55.34.73.22.17.5.25.88.25.36 0 .64-.08.86-.25a.91.91 0 0 0 .35-.73h.84c0 .52-.2.92-.55 1.21-.36.29-.86.43-1.5.43Zm8.22 8.99v-7.67l.3.31h-3.17v-1.04h6.93v1.04h-3.17l.29-.3v7.66h-1.18Zm5.75 0v-8.4h1.2v6.48l4.96-6.48h1.1v8.4h-1.17v-6.47l-4.98 6.47h-1.1Z" fill="#333"/></svg>